PathFileType	3	(X/Y/Z)	F:\ViconData\AntennenMessung\Messung1\Session1\ID19.trc
DataRate	CameraRate	NumFrames	NumMarkers	Units	OrigDataRate	OrigDataStartFrame	OrigNumFrames
120.0	120.0	4	70	mm	120.0	354	942	
Frame#	Time	Ashort			Along			Atop			A4			Bshort			Blong			Btop			B4			Cshort			Clong			Ctop			C4			Dshort			Dlong			Dtop			D4			Eshort			Elong			Etop			E4			Fshort			Flong			Ftop			F4			Gshort			Glong			Gtop			G4			Hshort			Hlong			Htop			H4			I1			I2			I3			I4			I5			WandAshort			WandAlong			WandAtop			WandA4			WandA15			WandBshort			WandB4			WandB5			WandBtop			WandBlong			WandCshort			WandClong			WandCtop			WandC4			WandC5			Acenter			Aantenna			Bcenter			Bantenna			Ccenter			Cantenna			Dcenter			Dantenna			Ecenter			Eantenna			Fcenter			Fantenna			Gcenter			Gantenna			Hcenter			Hantenna			Icenter			Iantenna			
		X1	Y1	Z1	X2	Y2	Z2	X3	Y3	Z3	X4	Y4	Z4	X5	Y5	Z5	X6	Y6	Z6	X7	Y7	Z7	X8	Y8	Z8	X9	Y9	Z9	X10	Y10	Z10	X11	Y11	Z11	X12	Y12	Z12	X13	Y13	Z13	X14	Y14	Z14	X15	Y15	Z15	X16	Y16	Z16	X17	Y17	Z17	X18	Y18	Z18	X19	Y19	Z19	X20	Y20	Z20	X21	Y21	Z21	X22	Y22	Z22	X23	Y23	Z23	X24	Y24	Z24	X25	Y25	Z25	X26	Y26	Z26	X27	Y27	Z27	X28	Y28	Z28	X29	Y29	Z29	X30	Y30	Z30	X31	Y31	Z31	X32	Y32	Z32	X33	Y33	Z33	X34	Y34	Z34	X35	Y35	Z35	X36	Y36	Z36	X37	Y37	Z37	X38	Y38	Z38	X39	Y39	Z39	X40	Y40	Z40	X41	Y41	Z41	X42	Y42	Z42	X43	Y43	Z43	X44	Y44	Z44	X45	Y45	Z45	X46	Y46	Z46	X47	Y47	Z47	X48	Y48	Z48	X49	Y49	Z49	X50	Y50	Z50	X51	Y51	Z51	X52	Y52	Z52	X53	Y53	Z53	X54	Y54	Z54	X55	Y55	Z55	X56	Y56	Z56	X57	Y57	Z57	X58	Y58	Z58	X59	Y59	Z59	X60	Y60	Z60	X61	Y61	Z61	X62	Y62	Z62	X63	Y63	Z63	X64	Y64	Z64	X65	Y65	Z65	X66	Y66	Z66	X67	Y67	Z67	X68	Y68	Z68	X69	Y69	Z69	X70	Y70	Z70	
354	2.9416667	-1038.2592	214.47101	-1644.1951	-1109.3704	203.97562	-1599.2762	-1063.8286	173.02036	-1625.6639	-1054.2291	262.24329	-1634.9586	-1353.0201	234.80046	1003.5952	-1281.4327	227.29001	1052.4252	-1322.7455	193.80011	1020.9718	-1284.7783	287.91602	1052.8241	813.94257	187.69937	1209.5901	892.23755	178.60072	1179.2101	844.4577	145.42612	1198.2588	860.69653	292.5217	1167.5857	1115.7175	209.78812	-1401.7919	1056.1339	193.98141	-1460.3387	1095.1072	162.37924	-1423.9751	1069.8223	238.66136	-1425.8278	-1204.639	1686.0282	-1563.0309	-1129.1923	1688.2955	-1606.0436	-1173.2303	1724.4214	-1581.9417	-1134.0851	1580.9486	-1603.839	-1239.6172	1699.156	1119.4885	-1309.051	1698.2708	1071.7231	-1270.3846	1736.2582	1096.856	-1244.6627	1593.8914	1106.5011	988.94208	1664.2598	1162.2689	955.72791	1702.2975	1181.0571	922.69495	1662.0438	1214.9939	939.77979	1659.4072	1159.8789	998.92694	1668.4407	-1579.4896	1058.7633	1670.1187	-1518.6692	1024.8929	1708.0052	-1551.1444	1059.1794	1672.1113	-1585.4971	-186.34941	163.22621	-148.54097	-189.23846	171.78674	-64.547661	-186.63155	127.26717	-106.12369	-155.312	168.06905	-111.70683	-236.12509	164.93687	-113.59268																																														-1068.8003	209.96338	-1624.903	-1074.001	248.60687	-1624.1071	-1321.5701	231.50093	1025.0474	-1320.3618	270.25641	1029.2369	848.15405	183.72365	1196.3152	851.89618	222.4938	1194.3478	1088.7097	202.62332	-1428.3296	1082.6216	240.92166	-1432.4736	-1171.9496	1687.0105	-1581.6672	-1170.6155	1648.0344	-1581.3813	-1270.745	1698.7592	1098.0748	-1271.1196	1659.7816	1099.3417	953.39825	1704.9653	1182.3749	972.6991	1731.947	1161.8696	1026.4039	1669.2112	-1551.5607	1027.9216	1630.2429	-1551.9789	-187.66742	167.13162	-110.22226	-188.67519	205.91415	-114.2096
355	2.95	-1038.2485	214.49281	-1644.2191	-1109.4025	204.05745	-1599.299	-1063.7766	173.06035	-1625.6715	-1054.194	262.25522	-1634.9673	-1353.0713	234.81523	1003.5772	-1281.3359	227.18228	1052.4536	-1322.7439	193.89418	1020.9417	-1284.776	287.88718	1052.8608	813.91888	187.67502	1209.5983	892.5802	179.1252	1178.7399	844.48065	145.48996	1198.2628	860.61865	292.62518	1167.4124	1115.7144	209.8119	-1401.8063	1056.1838	194.04785	-1460.4072	1095.0919	162.36795	-1423.938	1069.8256	238.62787	-1425.8257	-1204.5593	1685.9395	-1563.202	-1129.181	1688.2833	-1606.0074	-1173.2191	1724.4279	-1581.9526	-1134.087	1580.9691	-1603.8584	-1239.5989	1699.1298	1119.4824	-1309.1699	1698.5096	1071.8219	-1270.3785	1736.2502	1096.8596	-1244.6357	1593.7322	1106.4434	988.88428	1664.2157	1162.2733	955.92798	1702.312	1181.1522	922.75928	1661.9609	1215.0576	939.77417	1659.3887	1159.8942	998.93433	1668.4385	-1579.4897	1058.7616	1670.1133	-1518.6692	1024.8976	1708.011	-1551.1514	1059.1854	1672.1254	-1585.4865	-186.38547	163.37596	-148.50023	-189.25214	171.79112	-64.532295	-186.84457	127.06963	-105.96236	-155.31	168.06642	-111.72097	-236.12926	164.96857	-113.59414																																														-1068.7499	210.0195	-1624.9631	-1073.9501	248.66415	-1624.2228	-1321.549	231.46111	1025.0548	-1320.3164	270.21005	1029.2972	847.88422	183.98325	1196.2738	851.31476	222.78033	1194.2693	1088.7557	202.67314	-1428.3436	1082.7343	240.97731	-1432.5306	-1171.9285	1686.954	-1581.7322	-1170.5863	1647.9777	-1581.5028	-1270.8682	1698.851	1098.0608	-1271.3785	1659.8744	1099.3129	953.69592	1704.8921	1182.4309	973.10394	1731.8247	1161.9625	1026.4037	1669.2073	-1551.5642	1027.916	1630.2389	-1551.9789	-187.6993	167.23273	-110.01665	-188.52489	206.02682	-113.93272
356	2.9583333	-1038.2388	214.42149	-1644.2825	-1109.4042	204.04964	-1599.3191	-1063.8436	172.98987	-1625.6572	-1054.2201	262.26608	-1634.9794	-1353.0421	234.80522	1003.5438	-1281.3481	227.22542	1052.3986	-1322.7714	193.89149	1020.9718	-1284.7708	287.81793	1052.7958	813.93744	187.68932	1209.5464	892.17114	178.53389	1179.2739	844.27734	145.55971	1198.3015	860.7406	292.50226	1167.5719	1115.7084	209.78581	-1401.806	1056.1309	194.00215	-1460.4192	1095.1124	162.41548	-1423.9539	1069.8064	238.61896	-1425.8452	-1204.6163	1686.0161	-1563.0706	-1129.1942	1688.2759	-1606.0212	-1173.2334	1724.4331	-1581.9575	-1134.0873	1580.9584	-1603.8396	-1239.6425	1699.1787	1119.4994	-1309.0658	1698.2939	1071.7344	-1270.4111	1736.2667	1096.8705	-1244.7029	1593.7827	1106.4265	988.91229	1664.2366	1162.2465	955.83191	1702.2861	1181.0974	922.84906	1662.0187	1215.0833	939.81049	1659.4103	1159.9386	998.93329	1668.4297	-1579.4677	1058.649	1669.9447	-1518.6843	1024.9072	1708.0168	-1551.1582	1059.1901	1672.1305	-1585.4882	-186.34668	163.23457	-148.53316	-189.23	171.79126	-64.544128	-186.90187	127.05666	-106.03253	-155.33075	168.04077	-111.69152	-236.16963	164.95815	-113.59894																																														-1068.8004	209.96733	-1624.9729	-1073.9814	248.61505	-1624.2581	-1321.5466	231.47539	1025.0059	-1320.2839	270.23233	1029.1659	847.99323	183.70389	1196.3684	851.76978	222.47086	1194.4039	1088.7539	202.64488	-1428.324	1082.7001	240.94682	-1432.4847	-1171.9496	1686.9948	-1581.6731	-1170.6133	1648.0188	-1581.3773	-1270.7683	1698.7819	1098.084	-1271.1398	1659.8041	1099.3458	953.55316	1704.9071	1182.3959	972.8504	1731.8621	1161.8522	1026.3273	1669.1246	-1551.5839	1027.7502	1630.153	-1552.0105	-187.66458	167.14572	-110.14292	-188.40259	205.93536	-114.12009
357	2.9666667	-1038.2485	214.52428	-1644.2269	-1109.4148	203.96873	-1599.2422	-1063.7832	173.0434	-1625.6974	-1054.236	262.2569	-1634.9696	-1353.0468	234.84343	1003.4952	-1281.3409	227.24156	1052.3988	-1322.7998	193.85381	1020.9797	-1284.7638	287.82214	1052.8861	813.86755	187.7663	1209.5841	892.22076	178.42886	1179.3412	844.27344	145.59264	1198.2238	860.77576	292.53308	1167.6963	1115.7173	209.79874	-1401.7964	1056.109	194.02235	-1460.4325	1095.2056	162.61578	-1424.0151	1069.8263	238.58868	-1425.8092	-1204.6189	1686.0125	-1563.0542	-1129.1753	1688.2905	-1606.0182	-1173.2317	1724.425	-1581.9536	-1134.0901	1580.9506	-1603.8361	-1239.6124	1699.1542	1119.485	-1309.0453	1698.2872	1071.731	-1270.3812	1736.2502	1096.8589	-1245.4756	1592.7244	1110.6626	988.88873	1664.2018	1162.2743	955.85193	1702.3052	1181.1124	922.716	1661.9647	1215.1011	939.79883	1659.3997	1159.918	998.95062	1668.4351	-1579.464	1058.6514	1669.9462	-1518.6753	1024.9088	1708.0104	-1551.1471	1059.182	1672.1193	-1585.4882	-186.34415	163.21019	-148.53905	-189.2233	171.80043	-64.539841	-186.81363	127.14976	-106.10615	-155.32355	168.05107	-111.69844	-236.1216	164.94662	-113.59018																																														-1068.7783	209.99603	-1624.9288	-1074.0016	248.63632	-1624.1252	-1321.5389	231.50313	1024.9835	-1320.241	270.26297	1029.1056	848.09833	183.68697	1196.3717	851.99005	222.44653	1194.4873	1088.7966	202.67372	-1428.2778	1082.6692	240.97311	-1432.3535	-1171.9376	1686.9991	-1581.6655	-1170.59	1648.0237	-1581.3656	-1270.7471	1698.7653	1098.0714	-1271.1277	1659.7875	1099.3323	953.59625	1704.9067	1182.3984	972.96289	1731.838	1161.8889	1026.3346	1669.1282	-1551.5808	1027.7638	1630.1567	-1552.0156	-187.65742	167.12856	-110.22353	-188.47609	205.91479	-114.2181
